<svg width="12" height="12" viewBox="0 0 12 12" fill="none" xmlns="http://www.w3.org/2000/svg">
<path d="M9.125 7.25V11M7.25 9.125H11M2.25 4.75H3.5C4.19036 4.75 4.75 4.19036 4.75 3.5V2.25C4.75 1.55964 4.19036 1 3.5 1H2.25C1.55964 1 1 1.55964 1 2.25V3.5C1 4.19036 1.55964 4.75 2.25 4.75ZM8.5 4.75H9.75C10.4404 4.75 11 4.19036 11 3.5V2.25C11 1.55964 10.4404 1 9.75 1H8.5C7.80964 1 7.25 1.55964 7.25 2.25V3.5C7.25 4.19036 7.80964 4.75 8.5 4.75ZM2.25 11H3.5C4.19036 11 4.75 10.4404 4.75 9.75V8.5C4.75 7.80964 4.19036 7.25 3.5 7.25H2.25C1.55964 7.25 1 7.80964 1 8.5V9.75C1 10.4404 1.55964 11 2.25 11Z" stroke="#3073FF" stroke-linecap="round" stroke-linejoin="round"/>
</svg>
