<svg width="15" height="16" viewBox="0 0 15 16" fill="none" xmlns="http://www.w3.org/2000/svg">
<path d="M6.1 12.1504C6.1 11.819 5.83137 11.5504 5.5 11.5504C5.16863 11.5504 4.9 11.819 4.9 12.1504H6.1ZM9.69998 12.1504C9.69998 11.819 9.43135 11.5504 9.09998 11.5504C8.76861 11.5504 8.49998 11.819 8.49998 12.1504H9.69998ZM11.5645 7.29895L10.9809 7.43824L10.9846 7.45364L10.9891 7.46882L11.5645 7.29895ZM11.7074 7.71616L12.2659 7.49683L12.2658 7.49661L11.7074 7.71616ZM13.1017 8.93121L13.4769 8.46298L13.4769 8.46296L13.1017 8.93121ZM13.0832 11.2735L12.7083 10.805L12.69 10.8196L12.673 10.8356L13.0832 11.2735ZM1.51674 11.2735L1.92699 10.8356L1.90992 10.8196L1.89165 10.805L1.51674 11.2735ZM1.49825 8.93121L1.12307 8.46298L1.12307 8.46298L1.49825 8.93121ZM2.89261 7.71622L3.45106 7.93561L3.45106 7.93561L2.89261 7.71622ZM4.9 12.1504C4.9 12.5595 4.89417 13.3797 5.16249 14.1026C5.30049 14.4744 5.52287 14.8559 5.8865 15.1443C6.25806 15.439 6.73128 15.6 7.29998 15.6V14.4C6.96869 14.4 6.76691 14.311 6.63223 14.2041C6.48962 14.091 6.3745 13.9194 6.2875 13.685C6.10583 13.1955 6.1 12.5909 6.1 12.1504H4.9ZM7.29998 15.6C7.85228 15.6 8.31286 15.434 8.67556 15.1409C9.02885 14.8554 9.25245 14.4794 9.39614 14.1127C9.67791 13.3935 9.69998 12.5824 9.69998 12.1504H8.49998C8.49998 12.568 8.47205 13.1817 8.27883 13.6749C8.18503 13.9144 8.06487 14.0915 7.92129 14.2076C7.78712 14.316 7.5977 14.4 7.29998 14.4V15.6ZM4.90794 2.67719C5.55104 1.98111 6.41265 1.6 7.3 1.6V0.4C6.06236 0.4 4.88602 0.932583 4.02653 1.86286L4.90794 2.67719ZM7.3 1.6C8.18734 1.6 9.04894 1.9811 9.69206 2.67719L10.5735 1.86286C9.71397 0.932585 8.53764 0.4 7.3 0.4V1.6ZM9.69206 2.67719C10.3366 3.37487 10.7061 4.3306 10.7061 5.33613H11.9061C11.9061 4.04164 11.4315 2.79154 10.5735 1.86286L9.69206 2.67719ZM10.7061 5.33613C10.7061 6.07517 10.8191 6.76028 10.9809 7.43824L12.1481 7.15967C11.9995 6.53694 11.9061 5.95041 11.9061 5.33613H10.7061ZM10.9891 7.46882C11.0374 7.6326 11.091 7.78811 11.149 7.93571L12.2658 7.49661C12.2208 7.38209 12.1785 7.25975 12.14 7.12908L10.9891 7.46882ZM11.1489 7.93549C11.3331 8.40445 11.6732 8.69373 11.968 8.89794C12.1114 8.99729 12.2679 9.09189 12.3909 9.16895C12.5227 9.25159 12.6318 9.32353 12.7266 9.39945L13.4769 8.46296C13.325 8.34128 13.1666 8.23894 13.0282 8.15221C12.881 8.05992 12.7648 7.99007 12.6513 7.91146C12.4323 7.75976 12.3218 7.63912 12.2659 7.49683L11.1489 7.93549ZM12.7266 9.39944C12.9075 9.54441 13.0128 9.79973 12.9988 10.113C12.9844 10.4365 12.8476 10.6936 12.7083 10.805L13.4581 11.7419C13.9312 11.3633 14.1718 10.7442 14.1976 10.1665C14.2239 9.57869 14.0322 8.90792 13.4769 8.46298L12.7266 9.39944ZM13.0832 11.2735C12.673 10.8356 12.6735 10.8352 12.674 10.8347C12.6742 10.8345 12.6747 10.8341 12.675 10.8337C12.6757 10.8331 12.6763 10.8325 12.6769 10.832C12.6782 10.8308 12.6794 10.8297 12.6805 10.8287C12.6828 10.8266 12.6849 10.8248 12.6867 10.8232C12.6902 10.8201 12.6928 10.818 12.6942 10.8169C12.6971 10.8145 12.6955 10.816 12.6886 10.8208C12.6749 10.8304 12.64 10.8533 12.5778 10.8855C12.4531 10.9501 12.2201 11.0516 11.8312 11.158C11.0512 11.3714 9.66182 11.5999 7.3 11.5999V12.7999C9.7327 12.7999 11.2349 12.5652 12.1479 12.3154C12.6055 12.1902 12.9193 12.0601 13.1299 11.9509C13.2353 11.8963 13.3151 11.8468 13.3741 11.8057C13.4036 11.7852 13.4279 11.7668 13.4477 11.7509C13.4575 11.7429 13.4662 11.7356 13.4738 11.729C13.4776 11.7257 13.4812 11.7226 13.4844 11.7196C13.4861 11.7181 13.4876 11.7167 13.4892 11.7153C13.4899 11.7146 13.4906 11.7139 13.4914 11.7133C13.4917 11.7129 13.4923 11.7124 13.4924 11.7123C13.493 11.7118 13.4935 11.7113 13.0832 11.2735ZM7.3 11.5999C4.93815 11.5999 3.54873 11.3714 2.76875 11.158C2.37985 11.0516 2.14683 10.9501 2.02219 10.8855C1.96001 10.8533 1.92508 10.8304 1.91133 10.8208C1.90445 10.816 1.90283 10.8145 1.90572 10.8169C1.90716 10.818 1.90972 10.8201 1.9133 10.8232C1.91509 10.8248 1.91713 10.8266 1.91942 10.8287C1.92056 10.8297 1.92177 10.8308 1.92303 10.832C1.92366 10.8325 1.92431 10.8331 1.92497 10.8338C1.9253 10.8341 1.92581 10.8345 1.92597 10.8347C1.92648 10.8352 1.92699 10.8356 1.51674 11.2735C1.10648 11.7113 1.107 11.7118 1.10752 11.7123C1.1077 11.7124 1.10823 11.7129 1.10859 11.7133C1.10932 11.7139 1.11005 11.7146 1.11081 11.7153C1.11231 11.7167 1.11388 11.7181 1.11552 11.7196C1.1188 11.7226 1.12233 11.7257 1.12614 11.729C1.13375 11.7356 1.14245 11.7429 1.1523 11.7509C1.17201 11.7668 1.19632 11.7852 1.22584 11.8057C1.28488 11.8468 1.36466 11.8963 1.47007 11.9509C1.68065 12.0601 1.99446 12.1902 2.45205 12.3154C3.36507 12.5652 4.86728 12.7999 7.3 12.7999V11.5999ZM1.89165 10.805C1.75241 10.6936 1.61562 10.4365 1.60119 10.113C1.58721 9.79973 1.69251 9.54441 1.87344 9.39943L1.12307 8.46298C0.567793 8.90792 0.376157 9.57869 0.402383 10.1665C0.428156 10.7442 0.668715 11.3633 1.14182 11.7419L1.89165 10.805ZM1.87344 9.39943C1.96818 9.32352 2.0773 9.25159 2.20911 9.16896C2.33203 9.09191 2.48853 8.99731 2.63196 8.89797C2.92677 8.69379 3.26683 8.40454 3.45106 7.93561L2.33416 7.49682C2.27825 7.63914 2.16774 7.75978 1.94872 7.91147C1.83522 7.99008 1.71898 8.05992 1.57175 8.15222C1.4334 8.23894 1.27494 8.34129 1.12307 8.46298L1.87344 9.39943ZM3.45106 7.93561C3.72099 7.24851 3.89387 6.3936 3.89387 5.33613H2.69386C2.69386 6.26148 2.54294 6.96537 2.33416 7.49682L3.45106 7.93561ZM3.89387 5.33613C3.89387 4.3306 4.26336 3.37487 4.90794 2.67719L4.02653 1.86286C3.16853 2.79154 2.69386 4.04164 2.69386 5.33613H3.89387Z" fill="#6C707E"/>
</svg>
